# xmcd
#
# Track frame offsets: 
#        150
#        13989
#        27746
#        45342
#        60634
#        73439
#        85938
#        100665
#        112312
#        132305
#        147765
#        165183
#        184176
#        193990
#        213686
#        231881
#        251111
#        262973
#        283148
#        303858
#        321181
#
# Disc length: 4686 seconds
#
# Revision: 0
# Processed by: cddbd v1.5.2PL0 Copyright (c) Steve Scherf et al.
# Submitted via: ExactAudioCopy v1.0b3
#
DISCID=43124c15
DTITLE=Al Cook - Al Cook  Pioneer And Legend
DYEAR=2006
DGENRE=Blues
TTITLE0=050 Down In Boogie Alley - 01 - 050 Down In Boogie Alley
TTITLE1=086 Movin' Back To Alabama - 02 - 086 Movin' Back To Alabama
TTITLE2=Goin' Back To Memphis - 04 - 131 Goin' Back To Memphis
TTITLE3=049 Addie Lee - 03 - 049 Addie Lee
TTITLE4=084 The Birmingham Jam - 05 - 084 The Birmingham Jam
TTITLE5=115 The Memphis Jamboree - 06 - 115 The Memphis Jamboree
TTITLE6=033 Nice And Kind Blues - 07 - 033 Nice And Kind Blues
TTITLE7=028 Things Ain't Goin On Right - 08 - 028 Things Ain't Goin On
TTITLE7=Right
TTITLE8=079 House Rent Blues - 10 - 079 House Rent Blues
TTITLE9=030 Dirt Road Blues - 09 - 030 Dirt Road Blues
TTITLE10=071 Shake That Boogie - 11 - 071 Shake That Boogie
TTITLE11=098 Moanin' The Blues - 17 - 098 Moanin' The Blues
TTITLE12=010 East Coast Rag - 18 - 010 East Coast Rag
TTITLE13=066 Big Fat Mama - 14 - 066 Big Fat Mama
TTITLE14=123  44 Blues - 22 - 123  44 Blues
TTITLE15=let me be your honeydripper (RKH 22.10.04 - let me be your ho
TTITLE15=neydripper (RKH 22.10.04)
TTITLE16=True Love Blues (Sfb Berlin 11.8.1990 - True Love Blues (Sfb 
TTITLE16=Berlin 11.8.1990)
TTITLE17=sweet home chicago B (RKH 22.10.04 - sweet home chicago B (RK
TTITLE17=H 22.10.04)
TTITLE18=Al Cook's Worried Blues (R - Shumy) 4.9.94
TTITLE19=St.Louis Strut (Piano - Guitar Ca.2002)
TTITLE20=Original Working Man Blues 1965 - Original Working Man Blues 
TTITLE20=1965
EXTD=
EXTT0=
EXTT1=
EXTT2=
EXTT3=
EXTT4=
EXTT5=
EXTT6=
EXTT7=
EXTT8=
EXTT9=
EXTT10=
EXTT11=
EXTT12=
EXTT13=
EXTT14=
EXTT15=
EXTT16=
EXTT17=
EXTT18=
EXTT19=
EXTT20=
PLAYORDER=
